{"asset":{"version":"2.0","generator":"Unity 6000.4.0f1 glTFast 6.19.0"},"nodes":[{"name":"Stone012","mesh":0}],"buffers":[{"uri":"Stone012.bin","byteLength":8184}],"bufferViews":[{"buffer":0,"byteLength":504,"target":34963},{"buffer":0,"byteLength":7680,"byteOffset":504,"byteStride":48,"target":34962}],"accessors":[{"bufferView":1,"componentType":5126,"count":160,"type":"VEC3","max":[1.021586,1.978781,0.5817909],"min":[-0.9346838,-0.00268054,-0.6272888]},{"bufferView":1,"componentType":5126,"count":160,"type":"VEC3","byteOffset":12},{"bufferView":1,"componentType":5126,"count":160,"type":"VEC4","byteOffset":24},{"bufferView":1,"componentType":5126,"count":160,"type":"VEC2","byteOffset":40},{"bufferView":0,"componentType":5123,"count":252,"type":"SCALAR"}],"materials":[{"name":"Material.004","pbrMetallicRoughness":{"baseColorFactor":[0.6023086,0.07801517,0.0202850439,1],"metallicFactor":0,"roughnessFactor":0.5}}],"meshes":[{"name":"Stone0\"0","primitives":[{"attributes":{"POSITION":0,"NORMAL":1,"TANGENT":2,"TEXCOORD_0":3},"indices":4,"material":0}]}],"scene":0,"scenes":[{"name":"Stone012","nodes":[0]}]}